<svg fill="#000000" xmlns="http://www.w3.org/2000/svg" xmlns:xlink="http://www.w3.org/1999/xlink" version="1.1" x="0px" y="0px" viewBox="0 0 100 100" enable-background="new 0 0 100 100" xml:space="preserve"><g><path fill="#000000" d="M71.875,40.147c0.244-0.703,0.912-1.211,1.698-1.211h3.372v-0.09c0-0.761-0.623-1.383-1.384-1.383h-4.427   c-0.761,0-1.384,0.622-1.384,1.383v0.09h0.427C70.963,38.937,71.631,39.444,71.875,40.147z"/><path fill="#000000" d="M63.16,40.147c0.244-0.703,0.912-1.211,1.697-1.211h4.335v-0.09c0-0.761-0.623-1.383-1.384-1.383h-4.428   c-0.761,0-1.384,0.622-1.384,1.383v0.173C62.54,39.189,62.974,39.611,63.16,40.147z"/><path fill="#000000" d="M56.143,38.937h5.296v-0.09c0-0.761-0.623-1.383-1.384-1.383h-4.427c-0.762,0-1.384,0.622-1.384,1.383   v0.897c0.082,0.124,0.151,0.26,0.201,0.403C54.689,39.444,55.357,38.937,56.143,38.937z"/><path fill="#000000" d="M28.3,40.147c0.244-0.703,0.912-1.211,1.697-1.211h0.427v-0.09c0-0.761-0.623-1.383-1.383-1.383h-4.428   c-0.761,0-1.383,0.622-1.383,1.383v0.09h3.373C27.388,38.937,28.056,39.444,28.3,40.147z"/><path fill="#000000" d="M37.015,40.147c0.187-0.536,0.62-0.958,1.163-1.128v-0.173c0-0.761-0.623-1.383-1.383-1.383h-4.427   c-0.761,0-1.384,0.622-1.384,1.383v0.09h4.334C36.103,38.937,36.771,39.444,37.015,40.147z"/><path fill="#000000" d="M52.747,38.937c0.344,0,0.665,0.098,0.938,0.266v-0.355c0-0.761-0.622-1.383-1.384-1.383h-4.427   c-0.761,0-1.384,0.622-1.384,1.383v0.355c0.273-0.168,0.594-0.266,0.938-0.266H52.747z"/><path fill="#000000" d="M45.73,40.147c0.05-0.144,0.119-0.279,0.201-0.403v-0.897c0-0.761-0.623-1.383-1.384-1.383H40.12   c-0.761,0-1.384,0.622-1.384,1.383v0.09h5.295C44.818,38.937,45.485,39.444,45.73,40.147z"/><path fill="#000000" d="M53.463,41.917c0.234,0,0.459,0.043,0.668,0.12v-1.202c0-0.761-0.623-1.384-1.384-1.384h-5.319   c-0.761,0-1.384,0.623-1.384,1.384v1.202c0.208-0.077,0.433-0.12,0.668-0.12H53.463z"/><path fill="#000000" d="M54.759,40.835v1.584c0.19,0.173,0.347,0.382,0.457,0.617c0.309-0.66,0.978-1.119,1.753-1.119h5.877v-1.082   c0-0.761-0.622-1.384-1.384-1.384h-5.319C55.382,39.451,54.759,40.074,54.759,40.835z"/><path fill="#000000" d="M67.227,41.917h4.334v-1.082c0-0.761-0.622-1.384-1.383-1.384h-5.32c-0.761,0-1.384,0.623-1.384,1.384   v1.082h0.246c0.775,0,1.444,0.459,1.754,1.119C65.782,42.376,66.45,41.917,67.227,41.917z"/><path fill="#000000" d="M72.189,40.835v1.082h1.787c0.775,0,1.444,0.459,1.754,1.119c0.309-0.66,0.977-1.119,1.753-1.119h2.792   v-1.082c0-0.761-0.622-1.384-1.383-1.384h-5.319C72.812,39.451,72.189,40.074,72.189,40.835z"/><path fill="#000000" d="M24.444,43.036c0.309-0.66,0.978-1.119,1.753-1.119h1.788v-1.082c0-0.761-0.623-1.384-1.384-1.384h-5.32   c-0.761,0-1.384,0.623-1.384,1.384v1.082h2.792C23.467,41.917,24.136,42.376,24.444,43.036z"/><path fill="#000000" d="M37.329,40.835v1.082h5.876c0.775,0,1.444,0.459,1.753,1.119c0.11-0.235,0.266-0.444,0.457-0.617v-1.584   c0-0.761-0.623-1.384-1.384-1.384h-5.319C37.952,39.451,37.329,40.074,37.329,40.835z"/><path fill="#000000" d="M36.455,41.917h0.246v-1.082c0-0.761-0.623-1.384-1.384-1.384h-5.32c-0.761,0-1.383,0.623-1.383,1.384   v1.082h4.334c0.776,0,1.445,0.459,1.753,1.119C35.01,42.376,35.679,41.917,36.455,41.917z"/><path fill="#000000" d="M68.902,47.288c0.347-0.659,1.039-1.11,1.835-1.11h4.623v-2.274c0-0.761-0.622-1.384-1.384-1.384h-6.75   c-0.761,0-1.384,0.623-1.384,1.384v2.274h1.224C67.862,46.178,68.554,46.629,68.902,47.288z"/><path fill="#000000" d="M65.104,46.178v-2.274c0-0.761-0.623-1.384-1.384-1.384h-6.751c-0.761,0-1.383,0.623-1.383,1.384v2.568   c0.326,0.195,0.595,0.479,0.773,0.816c0.348-0.659,1.039-1.11,1.835-1.11H65.104z"/><path fill="#000000" d="M76.1,43.903v2.274h3.51c0.796,0,1.487,0.451,1.835,1.11c0.349-0.659,1.04-1.11,1.836-1.11h2.337v-2.274   c0-0.761-0.622-1.384-1.384-1.384h-6.75C76.723,42.52,76.1,43.143,76.1,43.903z"/><path fill="#000000" d="M18.73,47.288c0.348-0.659,1.04-1.11,1.835-1.11h3.509v-2.274c0-0.761-0.623-1.384-1.384-1.384h-6.75   c-0.761,0-1.384,0.623-1.384,1.384v2.274h2.337C17.69,46.178,18.382,46.629,18.73,47.288z"/><path fill="#000000" d="M31.272,47.288c0.348-0.659,1.04-1.11,1.836-1.11h1.223v-2.274c0-0.761-0.623-1.384-1.384-1.384h-6.75   c-0.761,0-1.384,0.623-1.384,1.384v2.274h4.623C30.233,46.178,30.925,46.629,31.272,47.288z"/><path fill="#000000" d="M54.522,46.178c0.11,0,0.219,0.009,0.324,0.025v-2.3c0-0.761-0.623-1.384-1.384-1.384h-6.75   c-0.761,0-1.384,0.623-1.384,1.384v2.3c0.105-0.017,0.213-0.025,0.323-0.025H54.522z"/><path fill="#000000" d="M44.589,46.472v-2.568c0-0.761-0.622-1.384-1.383-1.384h-6.751c-0.76,0-1.383,0.623-1.383,1.384v2.274   h6.909c0.796,0,1.488,0.451,1.835,1.11C43.994,46.95,44.263,46.667,44.589,46.472z"/><path fill="#000000" d="M41.98,46.868h-8.872c-0.761,0-1.384,0.623-1.384,1.384v8.478c0,0.761,0.623,1.383,1.384,1.383h8.872   c0.761,0,1.383-0.622,1.383-1.383v-8.478C43.364,47.491,42.741,46.868,41.98,46.868z"/><path fill="#000000" d="M56.13,60.33c-0.123-0.75-0.846-1.365-1.607-1.365h-8.871c-0.761,0-1.484,0.615-1.606,1.365l-0.137,0.84   c-0.123,0.752,0.4,1.366,1.161,1.366h10.035c0.762,0,1.284-0.614,1.161-1.366L56.13,60.33z"/><path fill="#000000" d="M70.737,58.112h8.872c0.761,0,1.384-0.622,1.384-1.383v-8.478c0-0.761-0.623-1.384-1.384-1.384h-8.872   c-0.761,0-1.383,0.623-1.383,1.384v8.478C69.354,57.49,69.977,58.112,70.737,58.112z"/><path fill="#000000" d="M69.083,60.195c-0.349-0.677-1.256-1.23-2.017-1.23h-8.872c-0.761,0-1.269,0.612-1.128,1.359l0.161,0.853   c0.141,0.747,0.879,1.359,1.64,1.359h10.035c0.761,0,1.099-0.554,0.751-1.23L69.083,60.195z"/><path fill="#000000" d="M81.897,48.252v8.478c0,0.761,0.622,1.383,1.383,1.383h8.872c0.761,0,1.383-0.622,1.383-1.383v-8.478   c0-0.761-0.622-1.384-1.383-1.384H83.28C82.52,46.868,81.897,47.491,81.897,48.252z"/><path fill="#000000" d="M81.898,60.012c-0.498-0.576-1.528-1.047-2.289-1.047h-8.872c-0.761,0-1.088,0.548-0.727,1.218l0.613,1.136   c0.361,0.67,1.279,1.218,2.04,1.218h10.035c0.762,0,0.977-0.471,0.479-1.047L81.898,60.012z"/><path fill="#000000" d="M58.194,58.112h8.872c0.761,0,1.384-0.622,1.384-1.383v-8.478c0-0.761-0.623-1.384-1.384-1.384h-8.872   c-0.761,0-1.383,0.623-1.383,1.384v8.478C56.812,57.49,57.434,58.112,58.194,58.112z"/><path fill="#000000" d="M96.812,61.657l-2.207-1.813c-0.588-0.483-1.691-0.879-2.452-0.879H83.28c-0.761,0-0.97,0.465-0.463,1.033   l1.341,1.505c0.506,0.568,1.543,1.033,2.303,1.033h10.036C97.258,62.536,97.399,62.141,96.812,61.657z"/><path fill="#000000" d="M8.022,58.112h8.872c0.761,0,1.384-0.622,1.384-1.383v-8.478c0-0.761-0.623-1.384-1.384-1.384H8.022   c-0.761,0-1.383,0.623-1.383,1.384v8.478C6.639,57.49,7.262,58.112,8.022,58.112z"/><path fill="#000000" d="M20.565,46.868c-0.761,0-1.383,0.623-1.383,1.384v8.478c0,0.761,0.623,1.383,1.383,1.383h8.872   c0.761,0,1.383-0.622,1.383-1.383v-8.478c0-0.761-0.623-1.384-1.383-1.384H20.565z"/><path fill="#000000" d="M44.268,48.252v8.478c0,0.761,0.623,1.383,1.384,1.383h8.871c0.762,0,1.384-0.622,1.384-1.383v-8.478   c0-0.761-0.622-1.384-1.384-1.384h-8.871C44.891,46.868,44.268,47.491,44.268,48.252z"/><path fill="#000000" d="M41.98,58.965h-8.872c-0.761,0-1.669,0.554-2.017,1.23l-0.57,1.11c-0.348,0.677-0.01,1.23,0.75,1.23h10.036   c0.76,0,1.499-0.612,1.639-1.359l0.161-0.853C43.249,59.577,42.741,58.965,41.98,58.965z"/><path fill="#000000" d="M16.894,58.965H8.022c-0.761,0-1.864,0.396-2.453,0.879l-2.207,1.813c-0.587,0.483-0.446,0.879,0.315,0.879   h10.035c0.761,0,1.798-0.465,2.304-1.033l1.34-1.505C17.863,59.43,17.655,58.965,16.894,58.965z"/><path fill="#000000" d="M29.437,58.965h-8.872c-0.761,0-1.791,0.471-2.289,1.047l-1.28,1.478c-0.498,0.576-0.283,1.047,0.478,1.047   H27.51c0.761,0,1.68-0.548,2.041-1.218l0.612-1.136C30.525,59.513,30.198,58.965,29.437,58.965z"/></g></svg>